<svg width="1067" height="511" viewBox="0 0 1067 511" fill="none" xmlns="http://www.w3.org/2000/svg">
<path d="M252.671 502.53L129.274 8.46959H181.706L308.268 502.53H252.671ZM0 502.53L126.11 8.46959H178.994L55.5968 502.53H0ZM55.5968 502.53L76.3981 419.246L248.603 308.435V381.133L55.5968 502.53Z" fill="black"/>
<path d="M417.756 511C401.183 511 385.965 507.942 372.104 501.825C358.544 495.708 346.49 487.238 335.943 476.416C325.698 465.593 317.11 453.595 310.179 440.42C303.549 426.774 298.879 412.658 296.167 398.072L347.695 373.369C351.613 390.779 359.297 406.071 370.748 419.246C382.199 432.421 396.361 439.244 413.236 439.714C432.823 439.714 448.342 433.362 459.793 420.657C471.244 407.953 476.969 391.249 476.969 370.546C476.969 351.724 472.148 336.432 462.505 324.669C452.862 312.435 439.905 303.024 423.632 296.436L384.76 280.909C369.994 274.792 356.585 265.852 344.531 254.088C332.779 242.325 323.438 227.503 316.507 209.623C309.878 191.743 306.563 170.569 306.563 146.101C306.563 99.9885 316.206 64.2279 335.491 38.8191C354.777 12.9397 382.349 0 418.208 0C438.398 0 456.026 4.9406 471.093 14.8218C486.461 24.2325 499.117 37.4075 509.062 54.3467C519.006 70.8154 526.388 89.6367 531.21 110.811L480.585 136.22C476.065 117.398 468.23 101.871 457.081 89.6367C445.931 77.4028 432.07 71.2859 415.496 71.2859C398.32 71.2859 384.76 77.6381 374.816 90.3425C365.173 103.047 360.352 120.692 360.352 143.278C360.352 161.628 364.118 175.98 371.652 186.331C379.487 196.213 390.033 203.741 403.292 208.917L442.165 223.739C470.49 234.561 492.488 253.147 508.158 279.497C523.827 305.847 531.662 335.02 531.662 367.017C531.662 395.249 527.293 420.187 518.554 441.832C509.815 463.476 496.857 480.415 479.681 492.649C462.806 504.883 442.165 511 417.756 511Z" fill="black"/>
<path d="M782.084 502.53L658.686 8.46959H711.119L837.681 502.53H782.084ZM529.413 502.53L655.522 8.46959H708.407L585.009 502.53H529.413ZM585.009 502.53L605.458 420.657L778.016 308.435V381.133L585.009 502.53Z" fill="black"/>
<path d="M953.094 511C936.521 511 921.303 507.942 907.442 501.825C893.882 495.708 881.828 487.238 871.281 476.416C861.036 465.593 852.448 453.595 845.517 440.42C838.888 426.774 834.217 412.658 831.505 398.072L883.034 373.369C886.951 390.779 894.635 406.071 906.086 419.246C917.537 432.421 931.699 439.244 948.574 439.714C968.161 439.714 983.68 433.362 995.131 420.657C1006.58 407.953 1012.31 391.249 1012.31 370.546C1012.31 351.724 1007.49 336.432 997.843 324.669C988.2 312.435 975.243 303.024 958.971 296.436L920.098 280.909C905.332 274.792 891.923 265.852 879.869 254.088C868.117 242.325 858.776 227.503 851.845 209.623C845.216 191.743 841.901 170.569 841.901 146.101C841.901 99.9885 851.544 64.2279 870.829 38.8191C890.115 12.9397 917.687 0 953.546 0C973.736 0 991.364 4.9406 1006.43 14.8218C1021.8 24.2325 1034.46 37.4075 1044.4 54.3467C1054.34 70.8154 1061.73 89.6367 1066.55 110.811L1015.92 136.22C1011.4 117.398 1003.57 101.871 992.419 89.6367C981.269 77.4028 967.408 71.2859 950.834 71.2859C933.658 71.2859 920.098 77.6381 910.154 90.3425C900.511 103.047 895.69 120.692 895.69 143.278C895.69 161.628 899.456 175.98 906.99 186.331C914.825 196.213 925.371 203.741 938.63 208.917L977.503 223.739C1005.83 234.561 1027.83 253.147 1043.5 279.497C1059.17 305.847 1067 335.02 1067 367.017C1067 395.249 1062.63 420.187 1053.89 441.832C1045.15 463.476 1032.2 480.415 1015.02 492.649C998.144 504.883 977.503 511 953.094 511Z" fill="black"/>
</svg>
